<svg width="30" height="30" viewBox="0 0 30 30" fill="none" xmlns="http://www.w3.org/2000/svg">
<path d="M16.8375 10.6624C16.7454 10.5766 16.6715 10.4731 16.6203 10.3581C16.569 10.2431 16.5415 10.119 16.5393 9.9931C16.537 9.86722 16.5602 9.74219 16.6073 9.62545C16.6545 9.50872 16.7247 9.40267 16.8137 9.31365C16.9027 9.22463 17.0088 9.15445 17.1255 9.10729C17.2422 9.06014 17.3673 9.03699 17.4932 9.03921C17.619 9.04143 17.7432 9.06898 17.8582 9.12022C17.9732 9.17146 18.0767 9.24534 18.1625 9.33745L23.1625 14.3374C23.3381 14.5132 23.4367 14.7515 23.4367 14.9999C23.4367 15.2484 23.3381 15.4867 23.1625 15.6624L18.1625 20.6624C18.0767 20.7546 17.9732 20.8284 17.8582 20.8797C17.7432 20.9309 17.619 20.9585 17.4932 20.9607C17.3673 20.9629 17.2422 20.9398 17.1255 20.8926C17.0088 20.8455 16.9027 20.7753 16.8137 20.6862C16.7247 20.5972 16.6545 20.4912 16.6073 20.3744C16.5602 20.2577 16.537 20.1327 16.5393 20.0068C16.5415 19.8809 16.569 19.7568 16.6203 19.6418C16.6715 19.5268 16.7454 19.4233 16.8375 19.3374L20.2375 15.9374L8.125 15.9374C7.87636 15.9374 7.6379 15.8387 7.46209 15.6629C7.28627 15.487 7.1875 15.2486 7.1875 14.9999C7.1875 14.7513 7.28627 14.5129 7.46209 14.337C7.6379 14.1612 7.87636 14.0624 8.125 14.0624L20.2375 14.0624L16.8375 10.6624Z" fill="#262727"/>
</svg>
